<svg width="32" height="32" viewBox="0 0 32 32" fill="none" xmlns="http://www.w3.org/2000/svg">
  <path d="M16 2C18.5 7 28 10 28 18C28 25 20 30 16 30C12 30 4 25 4 18C4 10 13.5 7 16 2Z" fill="#F9A8D4"/>
  <path d="M16 2C17.5 7 25 10 25 18C25 24 18 28 16 28C14 28 7 24 7 18C7 10 14.5 7 16 2Z" fill="#F472B6"/>
  <ellipse cx="16" cy="20" rx="2" ry="4" fill="#fff" opacity="0.7"/>
  <ellipse cx="12" cy="16" rx="1.2" ry="2.2" fill="#fff" opacity="0.4"/>
  <ellipse cx="20" cy="16" rx="1.2" ry="2.2" fill="#fff" opacity="0.4"/>
  <path d="M16 30C16 26 16 22 16 18" stroke="#BE185D" stroke-width="1.5" stroke-linecap="round"/>
</svg> 